<svg width="659" height="129" viewBox="0 0 659 129" fill="none" xmlns="http://www.w3.org/2000/svg">
<path fill-rule="evenodd" clip-rule="evenodd" d="M304.363 104.754C295.894 104.754 289.954 103.064 285.991 100.12C281.242 102.832 275.32 104.754 268.573 104.754C257.42 104.754 253.669 99.9956 255.392 90.1754L257.927 76.2044C259.245 68.409 256.71 65.1693 251.337 65.1693C243.834 65.1693 237.447 72.5598 236.23 79.7478V79.5453L232.218 102.408C232.134 102.886 231.719 103.235 231.233 103.235H221.908C221.287 103.235 220.816 102.675 220.923 102.063L222.459 93.3037C214.58 99.9343 202.666 104.754 190.098 104.754C174.383 104.754 161 96.4522 161 76.4069C161 55.8553 173.876 37.3285 195.371 37.3285C207.943 37.3285 216.763 43.2004 216.763 53.7293C216.763 56.0434 215.504 59.867 214.97 61.3828C214.832 61.7752 214.46 62.0309 214.045 62.0309H205.073C204.42 62.0309 203.941 61.4155 204.092 60.7807C204.482 59.1462 205.104 56.3607 205.104 55.2478C205.104 48.2623 199.223 46.7437 194.357 46.7437C180.467 46.7437 173.572 62.1321 173.572 75.3945C173.572 88.8593 180.872 94.6299 192.025 94.6299C203.421 94.6299 216.883 89.1298 225.036 78.6048L232.536 35.8273C232.62 35.3489 233.036 35 233.521 35H242.846C243.468 35 243.938 35.5608 243.831 36.1728L239.17 62.7396C243.023 58.0826 249.005 55.2479 255.798 55.2479C265.937 55.2479 272.02 60.816 269.688 74.0784L267.255 87.3407C266.342 92.6051 267.356 94.9336 272.831 94.9336C275.701 94.9336 278.338 94.2163 280.714 93.1572C279.75 90.6678 279.32 87.8581 279.32 84.8098C279.32 69.5226 290.067 55.2479 306.796 55.2479C317.036 55.2479 323.525 60.5123 323.525 68.1053C323.525 79.7478 310.345 85.7209 295.542 85.7209C294.123 85.7209 292.804 85.7209 291.385 85.6197C292.298 93.1114 296.759 95.6424 307.1 95.6424C314.415 95.6424 322.795 93.2902 329.404 89.4606C329.198 88.162 329.101 86.8101 329.101 85.4172C329.101 69.0164 339.139 55.2479 355.057 55.2479C364.587 55.2479 370.873 60.1074 370.873 68.2065C370.873 69.5464 370.216 71.981 369.867 73.1761C369.745 73.5948 369.36 73.8759 368.924 73.8759H359.745C359.047 73.8759 358.558 73.1768 358.773 72.5122C359.115 71.4543 359.518 70.0347 359.518 69.2189C359.518 65.878 357.49 63.9545 353.941 63.9545C346.743 63.9545 340.964 72.0536 340.964 83.8986C340.964 92.2002 346.033 95.4399 355.158 95.4399C364.115 95.4399 371.715 92.527 378.125 88.4745L387.356 35.8273C387.44 35.3489 387.855 35 388.341 35H397.67C398.29 35 398.761 35.5582 398.656 36.1692L395.206 56.2602C394.699 59.3987 393.888 63.0433 392.874 66.2829C397.031 58.9937 403.622 55.2479 411.327 55.2479C419.134 55.2479 424.102 59.2974 424.001 65.878C423.798 73.4709 417.613 79.5453 407.779 83.4936C409.299 89.6692 413.051 94.6299 419.641 94.7312C423.281 94.7312 427.147 93.9064 430.529 92.5534L436.631 57.5945C436.715 57.1158 437.13 56.7665 437.616 56.7665H446.306C446.936 56.7665 447.409 57.3421 447.287 57.9602L446.103 63.9545C449.55 58.69 455.532 55.2479 462.021 55.2479C468.51 55.2479 473.579 57.7789 474.897 64.4607C478.446 58.7913 484.732 55.2479 491.626 55.2479C500.954 55.2479 506.733 60.816 504.401 74.0784L502.069 87.3407C501.056 92.8077 502.374 94.9337 507.544 94.9337C510.423 94.9337 513.068 94.2329 515.46 93.1816C514.66 90.7483 514.236 87.9513 514.236 84.8098C514.236 69.7251 523.969 55.2479 540.293 55.2479C545.261 55.2479 550.229 56.7665 553.879 60.0061C554.421 58.9242 555.123 58.0028 555.915 57.099C556.102 56.8859 556.372 56.7665 556.656 56.7665H563.738C564.36 56.7665 564.831 57.3278 564.723 57.9401L559.556 87.2395C558.543 92.8077 560.57 94.9337 565.336 94.9337C568.936 94.9337 572.497 93.8334 575.626 92.1226C575.56 90.2397 575.739 88.1129 576.184 85.7209L579.834 66.2829H574.429C573.809 66.2829 573.339 65.7255 573.443 65.1149L574.724 57.5984C574.806 57.1179 575.223 56.7665 575.71 56.7665H581.659L584.141 43.71C584.23 43.2381 584.643 42.8967 585.123 42.8967H594.443C595.07 42.8967 595.542 43.4673 595.425 44.0834L593.015 56.7665H605.099C605.723 56.7665 606.194 57.331 606.083 57.9447L604.722 65.4612C604.635 65.937 604.221 66.2829 603.738 66.2829H591.19L587.641 84.6073C586.323 91.7952 588.452 95.2374 597.07 95.2374C600.482 95.2374 604.167 94.4535 607.61 92.9452C606.703 90.5086 606.296 87.7719 606.296 84.8098C606.296 69.5226 617.044 55.2479 633.773 55.2479C644.013 55.2479 650.502 60.5123 650.502 68.1053C650.502 79.7478 637.321 85.7209 622.518 85.7209C621.099 85.7209 619.781 85.7209 618.362 85.6197C619.274 93.1114 623.735 95.6424 634.077 95.6424C641.735 95.6424 652.697 89.1964 657.174 86.3435C657.926 85.8641 658.921 86.5179 658.761 87.3956L657.249 95.699C657.197 95.9845 657.027 96.2314 656.774 96.3746C654.378 97.733 641.505 104.754 631.339 104.754C622.386 104.754 616.259 102.865 612.307 99.6025C608.687 102.176 601.507 104.754 592.102 104.754C585.951 104.754 581.191 103.447 578.4 100.214C574.765 102.584 568.738 104.754 562.294 104.754C556.109 104.754 550.533 102.122 548.607 96.8572C544.652 101.717 539.279 104.754 532.283 104.754C527.317 104.754 523.143 103.296 520.065 100.504C515.171 103.085 509.73 104.754 503.286 104.754C492.235 104.754 488.483 99.8944 490.207 90.1754L492.64 76.2044C493.958 68.5102 491.626 65.1693 486.963 65.1693C480.677 65.1693 475.1 72.661 473.782 79.7478L469.968 102.401C469.887 102.883 469.471 103.235 468.982 103.235H459.559C458.938 103.235 458.468 102.676 458.573 102.065L463.035 76.2044C464.454 67.7003 461.616 65.1693 457.459 65.1693C451.274 65.1693 445.799 72.4586 444.278 78.6342L440.164 102.406C440.081 102.885 439.665 103.235 439.178 103.235H428.664L428.7 103.03C425.373 104.14 421.695 104.754 418.222 104.754C406.258 104.754 400.377 96.756 397.538 86.5308C395.004 87.037 392.368 87.5432 389.63 87.8469L387.039 102.41C386.954 102.888 386.54 103.235 386.055 103.235H376.728C376.106 103.235 375.635 102.675 375.743 102.063L376.382 98.4164C369.683 102.072 361.699 104.754 352.725 104.754C342.114 104.754 335.721 101.714 332.311 96.9114C325.154 101.478 315.032 104.754 304.363 104.754ZM407.881 63.8637C399.978 63.8637 394 71.6065 391.771 80.1434C401.397 79.6471 412.339 74.1874 412.339 67.7351C412.339 65.3527 410.921 63.8637 407.881 63.8637ZM536.356 95.1327C541.423 95.1327 545.982 91.2613 549.022 86.5958L552.264 68.0329C549.934 66.2461 546.59 64.5586 542.436 64.5586C532.912 64.5586 526.832 73.7904 526.832 84.0148C526.832 91.2613 529.973 95.1327 536.356 95.1327ZM619.237 78.5551C620.656 70.1175 626.532 64.1615 633.118 64.1615C636.968 64.1615 639.096 66.1468 639.096 69.1248C639.096 73.7903 634.334 78.5551 620.858 78.5551H619.237ZM306.357 64.1615C299.772 64.1615 293.895 70.1175 292.476 78.5551H294.098C307.573 78.5551 312.335 73.7903 312.335 69.1248C312.335 66.1468 310.208 64.1615 306.357 64.1615Z" fill="#8C55E7"/>
<path opacity="0.2" fill-rule="evenodd" clip-rule="evenodd" d="M43.4356 10.4945C32.5048 12.0835 24.9317 22.2327 26.5207 33.1635L32.7847 76.2548C33.18 76.6268 33.5754 76.9989 33.9715 77.3709L47.7268 90.2709C47.8604 90.3897 47.984 90.4887 48.1242 90.601C48.1942 90.6571 48.2684 90.7165 48.35 90.7833C48.4328 90.5885 48.5144 90.3968 48.595 90.2077C48.8831 89.5317 49.1576 88.8876 49.4184 88.2434C53.7587 77.6828 58.5887 67.345 63.7525 57.1855C68.7828 47.271 74.503 37.7576 80.3346 28.2887C82.9475 24.0723 85.8758 20.0927 88.807 16.1092C89.9958 14.4937 91.185 12.8775 92.3538 11.2447C93.4445 9.70737 95.1361 9.15038 96.7609 9.61825C99.3206 10.3758 100.389 13.2276 98.9199 15.4778C96.8499 18.6638 94.7354 21.8275 92.5987 24.969C90.5115 28.021 88.676 31.2212 86.8386 34.4246C86.4226 35.1498 86.0066 35.8752 85.5875 36.599C82.182 42.5031 78.9546 48.4964 76.0166 54.6233C69.7399 67.6792 63.9973 80.9802 59.1006 94.6154C58.1658 97.2222 57.2532 99.8289 56.3406 102.436C56.3278 102.473 56.3149 102.51 56.3018 102.547C56.47 102.526 56.6384 102.504 56.807 102.48L109.208 94.8622C120.139 93.2732 127.712 83.124 126.123 72.1932L118.506 19.7921C116.917 8.86129 106.767 1.28822 95.8367 2.87719L43.4356 10.4945Z" fill="#8C55E7"/>
<path opacity="0.4" fill-rule="evenodd" clip-rule="evenodd" d="M48.595 90.2077C48.5144 90.3969 48.4328 90.5885 48.35 90.7834C48.2684 90.7165 48.1942 90.6571 48.1242 90.601C47.984 90.4888 47.8604 90.3898 47.7268 90.271L33.9715 77.371C33.4702 76.9 32.9698 76.4291 32.4696 75.9583C30.4377 74.046 28.4089 72.1366 26.337 70.2415C23.9554 68.0581 20.2606 69.1498 19.5929 72.2466C19.2813 73.6725 19.8377 74.8311 20.7726 75.9005C24.434 80.0668 28.0898 84.2387 31.7457 88.4106C35.4015 92.5825 39.0574 96.7543 42.7188 100.921C43.0156 101.257 43.3102 101.596 43.6048 101.935C44.6358 103.121 45.6668 104.307 46.792 105.399C48.862 107.426 51.8668 107.493 54.1594 105.733C55.25 104.864 55.8955 103.728 56.3406 102.436C57.2532 99.829 58.1658 97.2222 59.1006 94.6155C63.9973 80.9803 69.7399 67.6793 76.0166 54.6234C78.9546 48.4964 82.182 42.5032 85.5875 36.5991C86.0066 35.8752 86.4226 35.1499 86.8386 34.4247C88.676 31.2213 90.5115 28.0211 92.5987 24.969C94.2673 22.5159 95.9223 20.0491 97.5532 17.5688C102.33 20.5813 105.808 25.5871 106.684 31.6137L114.301 84.0147C115.89 94.9456 108.317 105.095 97.3863 106.684L44.9853 114.301C34.0545 115.89 23.9052 108.317 22.3162 97.3862L14.6989 44.9851C13.1099 34.0543 20.683 23.9051 31.6138 22.3161L84.0149 14.6988C85.9979 14.4105 87.9552 14.4238 89.8403 14.7039C89.4962 15.1727 89.1516 15.641 88.807 16.1093C85.8758 20.0927 82.9475 24.0723 80.3346 28.2887C74.503 37.7576 68.7828 47.2711 63.7525 57.1855C58.5887 67.3451 53.7587 77.6829 49.4184 88.2435C49.1576 88.8876 48.8831 89.5317 48.595 90.2077Z" fill="#8C55E7"/>
<path fill-rule="evenodd" clip-rule="evenodd" d="M48.595 90.2077C48.5144 90.3969 48.4328 90.5885 48.35 90.7834C48.2684 90.7165 48.1942 90.6571 48.1242 90.601C47.984 90.4888 47.8604 90.3898 47.7268 90.271L33.9715 77.371C33.4702 76.9 32.9698 76.4291 32.4696 75.9583C30.4377 74.046 28.4089 72.1366 26.337 70.2415C23.9554 68.0581 20.2606 69.1498 19.5929 72.2466C19.2813 73.6725 19.8377 74.8311 20.7726 75.9005C24.434 80.0668 28.0898 84.2387 31.7457 88.4106C35.4015 92.5825 39.0574 96.7543 42.7188 100.921C43.0156 101.257 43.3102 101.596 43.6048 101.935C44.6358 103.121 45.6668 104.307 46.792 105.399C48.862 107.426 51.8668 107.493 54.1594 105.733C55.25 104.864 55.8955 103.728 56.3406 102.436C57.2532 99.829 58.1658 97.2222 59.1006 94.6155C63.9973 80.9803 69.7399 67.6793 76.0166 54.6234C78.9546 48.4964 82.182 42.5032 85.5875 36.5991C86.0066 35.8752 86.4226 35.1499 86.8386 34.4247C87.3968 33.4514 87.9549 32.4783 88.52 31.5097C91.8368 34.5199 94.1675 38.6568 94.8621 43.4355L102.479 95.8365C104.068 106.767 96.4954 116.917 85.5646 118.506L33.1635 126.123C22.2327 127.712 12.0834 120.139 10.4945 109.208L2.87713 56.8069C1.28817 45.8761 8.86123 35.7268 19.792 34.1379L72.1931 26.5206C75.2508 26.0761 78.2473 26.3485 81.0124 27.2108C80.7843 27.5685 80.5583 27.9277 80.3346 28.2887C74.503 37.7576 68.7828 47.2711 63.7525 57.1855C58.5887 67.3451 53.7587 77.6829 49.4184 88.2435C49.1576 88.8876 48.8831 89.5317 48.595 90.2077Z" fill="#8C55E7"/>
</svg>
